{"title":"Moldy (2015) WEBRip 720p x264-[f1d] mp4","uid":12072422,"size":915193409,"categoryP":"video","categoryS":"movies","magnet":"?xt=urn:btih:6323077fc7195db9ac4d77e312e71fdae9836ca1&amp;dn=Moldy+%282015%29+WEBRip+720p+x264-%5Bf1d%5D+mp4&amp;tr=udp%3A%2F%2Ftracker.openbittorrent.com%3A80&amp;tr=udp%3A%2F%2Fopen.demonii.com%3A1337&amp;tr=udp%3A%2F%2Ftracker.coppersurfer.tk%3A6969&amp;tr=udp%3A%2F%2Fexodus.desync.com%3A6969","seeders":4,"leechers":1,"uploader":"F1_Dance","files":1,"time":1435547093,"description":"MOLDY is a gripping documentary that explores toxic mold and how it has become a modern-day health problem of monumental proportions that affects us all. MOLDY brings together the country's top medical experts with mold survivors, as we follow their stories of illness, treatment and recovery. Learn to recognize the conditions necessary for mold to thrive, and how to navigate the murky waters of recovery of both home and health.\n\nDirectors: Kee Kee Buckley, Eric Troyer\nWriters: Kee Kee Buckley, Eric Troyer\n\n\nGeneral\nComplete name : Moldy.(2015).WEBRip.720p.x264-[f1d].mp4\nFormat : MPEG-4\nFormat profile : Base Media / Version 2\nCodec ID : mp42\nFile size : 873 MiB\nDuration : 1h 0mn\nOverall bit rate mode : Variable\nOverall bit rate : 2 005 Kbps\nEncoded date : UTC 2015-05-29 00:07:26\nTagged date : UTC 2015-05-29 00:07:26\n\nVideo\nID : 1\nFormat : AVC\nFormat/Info : Advanced Video Codec\nFormat profile : &lt;a class=&quot;__cf_email__&quot; href=&quot;/cdn-cgi/l/email-protection&quot; data-cfemail=&quot;6f270608072f235c415e&quot;&gt;[email&amp;#160;protected]&lt;/a&gt;&lt;script data-cfhash='f9e31' type=&quot;text/javascript&quot;&gt;\n/* &lt;![CDATA[ */!function(){try{var t=&quot;currentScript&quot;in document?document.currentScript:function(){for(var t=document.getElementsByTagName(&quot;script&quot;),e=t.length;e--;)if(t[e].getAttribute(&quot;data-cfhash&quot;))return t[e]}();if(t&amp;&amp;t.previousSibling){var e,r,n,i,c=t.previousSibling,a=c.getAttribute(&quot;data-cfemail&quot;);if(a){for(e=&quot;&quot;,r=parseInt(a.substr(0,2),16),n=2;a.length-n;n+=2)i=parseInt(a.substr(n,2),16)^r,e+=String.fromCharCode(i);e=document.createTextNode(e),c.parentNode.replaceChild(e,c)}t.parentNode.removeChild(t);}}catch(u){}}()/* ]]&gt; */&lt;/script&gt;\nFormat settings, CABAC : Yes\nFormat settings, ReFrames : 4 frames\nCodec ID : avc1\nCodec ID/Info : Advanced Video Coding\nDuration : 1h 0mn\nBit rate : 1 841 Kbps\nWidth : 1 280 pixels\nHeight : 720 pixels\nDisplay aspect ratio : 16:9\nFrame rate mode : Constant\nFrame rate : 23.976 fps\nColor space : YUV\nChroma subsampling : 4:2:0\nBit depth : 8 bits\nScan type : Progressive\nBits/(Pixel*Frame) : 0.083\nStream size : 801 MiB (92%)\nWriting library : x264 core 144 r11 40bb568\nEncoding settings : cabac=1 / ref=3 / deblock=1:0:0 / analyse=0x3:0x113 / me=hex / subme=7 / psy=1 / psy_rd=1.00:0.00 / mixed_ref=1 / me_range=16 / chroma_me=1 / trellis=1 / 8x8dct=1 / cqm=0 / deadzone=21,11 / fast_pskip=1 / chroma_qp_offset=-2 / threads=48 / lookahead_threads=5 / sliced_threads=0 / nr=0 / decimate=1 / interlaced=0 / bluray_compat=0 / stitchable=1 / constrained_intra=0 / bframes=3 / b_pyramid=2 / b_adapt=1 / b_bias=0 / direct=1 / weightb=1 / open_gop=0 / weightp=2 / keyint=infinite / keyint_min=23 / scenecut=40 / intra_refresh=0 / rc_lookahead=40 / rc=crf / mbtree=1 / crf=20.0 / qcomp=0.60 / qpmin=5 / qpmax=69 / qpstep=4 / vbv_maxrate=2750 / vbv_bufsize=7500 / crf_max=0.0 / nal_hrd=none / filler=0 / ip_ratio=1.40 / aq=1:1.00\nEncoded date : UTC 2015-05-29 00:07:26\nTagged date : UTC 2015-05-29 00:07:26\nColor range : Limited\nColor primaries : BT.709\nTransfer characteristics : BT.709\nMatrix coefficients : BT.709\n\nAudio\nID : 2\nFormat : AAC\nFormat/Info : Advanced Audio Codec\nFormat profile : LC\nCodec ID : 40\nDuration : 1h 0mn\nBit rate mode : Variable\nBit rate : 160 Kbps\nChannel(s) : 2 channels\nChannel positions : Front: L R\nSampling rate : 48.0 KHz\nCompression mode : Lossy\nStream size : 69.7 MiB (8%)\nEncoded date : UTC 2015-05-29 00:07:26\nTagged date : UTC 2015-05-29 00:07:26","torrent":{"xt":"urn:btih:6323077fc7195db9ac4d77e312e71fdae9836ca1","amp;dn":"Moldy+%282015%29+WEBRip+720p+x264-%5Bf1d%5D+mp4","amp;tr":["udp%3A%2F%2Ftracker.openbittorrent.com%3A80","udp%3A%2F%2Fopen.demonii.com%3A1337","udp%3A%2F%2Ftracker.coppersurfer.tk%3A6969","udp%3A%2F%2Fexodus.desync.com%3A6969"],"infoHash":"6323077fc7195db9ac4d77e312e71fdae9836ca1","infoHashBuffer":{"type":"Buffer","data":[99,35,7,127,199,25,93,185,172,77,119,227,18,231,31,218,233,131,108,161]},"announce":[],"urlList":[]}}